<svg width="143" height="143" viewBox="0 0 143 143" fill="none" xmlns="http://www.w3.org/2000/svg">
<rect x="71.5" width="101.116" height="101.116" rx="4" transform="rotate(45 71.5 0)" fill="#C4C4C4" fill-opacity="0.38"/>
<path d="M86.1172 50.0247C86.1172 50.0247 61.9739 54.4739 73.5514 64.2831C76.9752 67.1712 72.669 69.7731 72.669 69.7731C72.669 69.7731 81.3168 66.5207 77.2929 62.3577C73.5514 58.5329 70.7276 56.6335 86.1172 50.0247ZM70.3393 53.147C84.6347 44.8209 77.2929 39.4089 77.2929 39.4089C80.2579 47.9952 66.8449 50.5971 62.0092 55.957C58.6912 59.5997 63.6329 63.5285 70.2335 68.0298C67.7273 63.6066 58.8677 59.8078 70.3393 53.147ZM60.9503 79.6603C50.0787 81.8979 67.5862 86.5033 81.3874 82.1581C80.0461 81.7678 78.7401 81.2995 77.5047 80.7531C72.7043 81.5597 67.7626 81.7158 62.8916 81.2214C58.2677 80.8051 60.9503 79.6603 60.9503 79.6603ZM79.7284 75.2891C73.5514 76.2778 67.1626 76.512 60.8797 75.9656C56.2557 75.6274 59.2913 73.9621 59.2913 73.9621C47.2902 76.9023 65.9272 80.2067 82.5875 76.6161C81.5639 76.3299 80.5756 75.8355 79.7284 75.2891ZM91.8001 83.8754C91.8001 83.8754 93.812 85.0983 89.647 86.035C81.5992 87.8042 56.3616 88.3506 49.3728 86.113C46.8667 85.3064 51.5965 84.1876 53.079 83.9534C53.8908 83.7973 54.7026 83.7453 55.5145 83.7453C52.726 82.3403 37.407 86.6074 47.7844 87.8042C75.9163 91.1867 99.1066 86.2431 91.8001 83.8754ZM82.1286 71.2301C83.1523 70.7358 84.2465 70.3195 85.376 69.9552C85.376 69.9552 80.0461 70.6317 74.7162 70.996C69.0686 71.4123 63.3858 71.4643 57.7382 71.1521C49.4434 70.3455 62.2916 68.0298 62.2916 68.0298C58.4089 68.0298 54.5968 68.7063 51.1376 69.9812C43.9017 72.5831 69.1392 73.754 82.1286 71.2301ZM85.3054 77.5267C85.2348 77.6308 85.1642 77.7089 85.023 77.7869C102.707 74.3784 96.2123 65.7141 87.7409 67.8737C87.282 68.0298 86.8938 68.238 86.6467 68.5242C87.1409 68.3941 87.635 68.29 88.1645 68.2119C92.4002 67.5875 98.4713 72.453 85.3054 77.5267ZM85.7643 89.5215C75.1398 90.8745 64.2682 90.9786 53.5731 89.8858C53.5731 89.8858 55.1968 90.8745 63.4917 91.2648C76.1987 91.8632 95.7181 90.9265 96.177 86.5033C96.2829 86.5293 95.3651 88.1945 85.7643 89.5215Z" fill="#A1A1A1"/>
</svg>
