<svg width="187" height="187" viewBox="0 0 187 187" fill="none" xmlns="http://www.w3.org/2000/svg">
<g filter="url(#filter0_d)">
<rect x="93.4999" y="12" width="101.116" height="101.116" rx="4" transform="rotate(45 93.4999 12)" fill="#1D1D1D"/>
</g>
<path d="M108.912 62.2328C108.912 62.2328 84.313 66.766 96.1089 76.7602C99.5974 79.7028 95.2099 82.3538 95.2099 82.3538C95.2099 82.3538 104.021 79.0401 99.921 74.7985C96.1089 70.9015 93.2319 68.9663 108.912 62.2328ZM92.8363 65.414C107.401 56.9308 99.921 51.4167 99.921 51.4167C102.942 60.165 89.2759 62.816 84.3489 68.277C80.9684 71.9884 86.0033 75.9914 92.7284 80.5776C90.175 76.071 81.1482 72.2005 92.8363 65.414ZM83.27 92.4276C72.1934 94.7074 90.0311 99.3997 104.093 94.9725C102.726 94.5749 101.396 94.0977 100.137 93.541C95.2458 94.3628 90.211 94.5219 85.248 94.0182C80.5368 93.594 83.27 92.4276 83.27 92.4276ZM102.403 87.9739C96.1089 88.9813 89.5996 89.2199 83.1981 88.6632C78.4869 88.3185 81.5798 86.6219 81.5798 86.6219C69.3523 89.6175 88.3409 92.9843 105.316 89.3259C104.273 89.0343 103.266 88.5306 102.403 87.9739ZM114.702 96.7222C114.702 96.7222 116.752 97.9681 112.508 98.9225C104.309 100.725 78.5948 101.282 71.4741 99.002C68.9207 98.1802 73.7398 97.0403 75.2502 96.8017C76.0774 96.6427 76.9045 96.5896 77.7317 96.5896C74.8906 95.1581 59.2825 99.5057 69.8557 100.725C98.5185 104.171 122.146 99.1346 114.702 96.7222ZM104.848 83.8384C105.891 83.3347 107.006 82.9105 108.157 82.5394C108.157 82.5394 102.726 83.2286 97.2957 83.5998C91.5416 84.0239 85.7515 84.077 79.9974 83.7588C71.546 82.937 84.6367 80.5776 84.6367 80.5776C80.6807 80.5776 76.7967 81.2669 73.2723 82.5659C65.8998 85.2169 91.6135 86.4098 104.848 83.8384ZM108.085 90.2538C108.013 90.3598 107.941 90.4393 107.797 90.5189C125.815 87.0461 119.197 78.2183 110.566 80.4186C110.099 80.5776 109.703 80.7897 109.451 81.0813C109.955 80.9488 110.458 80.8427 110.998 80.7632C115.313 80.127 121.499 85.0843 108.085 90.2538ZM108.552 102.475C97.7273 103.853 86.6506 103.959 75.7537 102.846C75.7537 102.846 77.408 103.853 85.8594 104.251C98.8062 104.861 118.694 103.906 119.161 99.3997C119.269 99.4262 118.334 101.123 108.552 102.475Z" fill="#EC5B5B"/>
<defs>
<filter id="filter0_d" x="0.65686" y="0.656738" width="185.686" height="185.686" filterUnits="userSpaceOnUse" color-interpolation-filters="sRGB">
<feFlood flood-opacity="0" result="BackgroundImageFix"/>
<feColorMatrix in="SourceAlpha" type="matrix" values="0 0 0 0 0 0 0 0 0 0 0 0 0 0 0 0 0 0 127 0"/>
<feMorphology radius="3" operator="dilate" in="SourceAlpha" result="effect1_dropShadow"/>
<feOffset dy="10"/>
<feGaussianBlur stdDeviation="10"/>
<feColorMatrix type="matrix" values="0 0 0 0 0.113725 0 0 0 0 0.113725 0 0 0 0 0.113725 0 0 0 0.25 0"/>
<feBlend mode="normal" in2="BackgroundImageFix" result="effect1_dropShadow"/>
<feBlend mode="normal" in="SourceGraphic" in2="effect1_dropShadow" result="shape"/>
</filter>
</defs>
</svg>
