<?xml version="1.0" standalone="no"?>
<!DOCTYPE svg PUBLIC "-//W3C//DTD SVG 20010904//EN"
 "http://www.w3.org/TR/2001/REC-SVG-20010904/DTD/svg10.dtd">
<svg version="1.0" xmlns="http://www.w3.org/2000/svg"
 width="386.000000pt" height="466.000000pt" viewBox="0 0 386.000000 466.000000"
 preserveAspectRatio="xMidYMid meet">

<g transform="translate(0.000000,466.000000) scale(0.100000,-0.100000)"
fill="#000000" stroke="none">
<path d="M2160 4653 c-257 -26 -442 -68 -660 -150 -634 -240 -1149 -769 -1368
-1405 -94 -270 -126 -467 -127 -758 0 -287 28 -474 107 -718 196 -607 621
-1097 1193 -1377 315 -155 608 -228 960 -242 565 -21 1092 155 1563 522 11 9
1 25 -43 80 -31 39 -60 73 -64 78 -4 4 -25 -7 -47 -24 -88 -71 -257 -176 -387
-240 -984 -482 -2174 -144 -2764 786 -145 229 -249 506 -300 800 -24 141 -24
509 0 650 103 594 416 1091 902 1427 548 379 1261 479 1903 266 211 -70 469
-208 643 -344 30 -24 58 -44 61 -44 3 0 33 33 67 74 l61 74 -63 50 c-337 268
-792 449 -1236 492 -96 9 -322 11 -401 3z"/>
<path d="M2618 3033 l-658 -658 -153 153 -152 152 -88 -87 -87 -88 152 -152
153 -153 -155 -155 -155 -155 93 -92 92 -93 155 155 155 155 635 -635 635
-635 87 88 88 87 -635 635 -635 635 235 237 c129 131 426 430 660 665 l425
428 -85 85 c-46 47 -89 85 -95 85 -5 0 -306 -296 -667 -657z"/>
<path d="M1120 2220 l0 -1390 100 0 100 0 0 1390 0 1390 -100 0 -100 0 0
-1390z"/>
</g>
</svg>
